#!OML:ASF \\sashay\E\basketball\basketball\Project 1\Capture day 1\Session 1\Subject.ASF
:FULLY-SPECIFIED
:DEGREES
225
root 5.62223 14.4936 4.71265 -176.033 -40.3431 186.106
lowerback 36.9449 5.35349 -2.42271
upperback 11.5992 3.44694 2.88111
thorax -5.75511 0.447346 3.15194
lowerneck -5.40105 -4.09245 -17.7172
upperneck -18.8085 -3.47783 27.1292
head -3.37372 -2.7609 12.2907
rclavicle -9.36276e-014 6.75122e-014
rhumerus -27.217 -32.7032 -54.3331
rradius 42.6523
rwrist -23.2651
rhand -40.3039 45.5894
rfingers 7.12502
rthumb -13.2607 16.0312
lclavicle -9.36276e-014 6.75122e-014
lhumerus -3.66987 28.0789 43.3935
lradius 85.9793
lwrist 25.8654
lhand -42.599 9.90763
lfingers 7.12502
lthumb -15.4722 39.3085
rfemur -52.6953 -36.9389 31.4361
rtibia 83.4286
rfoot -12.4075 -0.545063
rtoes -1.12723
lfemur -69.1215 36.5415 -29.0493
ltibia 87.1813
lfoot -5.98507 -10.0526
ltoes -28.7982
226
root 5.822 14.4327 4.55601 -176.431 -39.9485 186.693
lowerback 37.1398 5.40172 -2.44952
upperback 11.6762 3.45664 3.08187
thorax -5.75443 0.422305 3.37243
lowerneck -5.97265 -4.0676 -17.5965
upperneck -18.8357 -3.42359 27.0907
head -3.30064 -2.73303 12.24
rclavicle 3.52346e-014 -2.03785e-014
rhumerus -26.7318 -34.5428 -54.4482
rradius 41.1003
rwrist -21.6728
rhand -40.0336 45.4139
rfingers 7.12502
rthumb -13.0002 15.839
lclavicle 3.52346e-014 -2.03785e-014
lhumerus -4.19478 28.5035 43.4836
lradius 86.4676
lwrist 25.7387
lhand -42.7964 10.5551
lfingers 7.12502
lthumb -15.6623 39.9411
rfemur -51.5843 -35.7201 29.3696
rtibia 82.2071
rfoot -13.1292 -1.86543
rtoes 1.36829
lfemur -69.1181 35.8906 -29.0671
ltibia 87.1285
lfoot -3.82457 -12.148
ltoes -28.7205
227
root 6.01969 14.3703 4.39962 -176.995 -39.5103 187.453
lowerback 37.3612 5.48486 -2.1641
upperback 11.7578 3.62036 3.34957
thorax -5.7557 0.470985 3.44427
lowerneck -6.3281 -4.09698 -17.7666
upperneck -19.0249 -3.42447 27.1799
head -3.2847 -2.73433 12.3129
rclavicle 6.63879e-014 -7.87622e-014
rhumerus -26.4792 -36.6485 -54.2344
rradius 39.7037
rwrist -20.3938
rhand -39.8906 45.117
rfingers 7.12502
rthumb -12.8623 15.5334
lclavicle 6.63879e-014 -7.87622e-014
lhumerus -4.25662 28.8323 44.0484
lradius 86.838
lwrist 25.5944
lhand -43.0202 11.102
lfingers 7.12502
lthumb -15.8778 40.4711
rfemur -50.2824 -34.4159 27.2914
rtibia 80.789
rfoot -13.9406 -3.37429
rtoes 3.75129
lfemur -68.7661 35.2355 -28.6278
ltibia 86.6198
lfoot -1.22727 -13.9725
ltoes -29.8888
228
root 6.20616 14.3019 4.24024 -177.594 -38.9862 188.102
lowerback 37.6638 5.59103 -1.84701
upperback 11.818 3.81557 3.55775
thorax -5.80141 0.53554 3.42302
lowerneck -6.57549 -4.06696 -17.5408
upperneck -19.1936 -3.39003 26.8942
head -3.32205 -2.72224 12.1623
rclavicle 2.13694e-015 1.63128e-014
rhumerus -26.4226 -38.41 -53.8875
rradius 38.4947
rwrist -19.8864
rhand -39.7351 45.0475
rfingers 7.12502
rthumb -12.7124 15.4544
lclavicle 2.13694e-015 1.63128e-014
lhumerus -4.23562 29.1169 44.7268
lradius 87.1504
lwrist 25.3822
lhand -43.1253 11.046
lfingers 7.12502
lthumb -15.979 40.407
rfemur -48.7584 -33.1895 25.0671
rtibia 79.2288
rfoot -14.5446 -5.53024
rtoes 1.33821
lfemur -67.9288 34.5895 -27.8918
ltibia 85.6701
lfoot 1.9412 -15.4872
ltoes -28.9607
229
root 6.38869 14.2264 4.07984 -178.113 -38.4315 188.755
lowerback 37.9137 5.60133 -1.78197
upperback 11.8466 3.80748 3.70734
thorax -5.86066 0.504948 3.54745
lowerneck -7.16094 -3.7877 -16.7861
upperneck -19.0688 -3.06285 26.384
head -3.31017 -2.56729 11.8093
rclavicle -3.33958e-014 1.60519e-014
rhumerus -25.9988 -39.8689 -54.0172
rradius 37.3752
rwrist -19.5288
rhand -39.2521 45.0539
rfingers 7.12502
rthumb -12.2467 15.4325
lclavicle -3.33958e-014 1.60519e-014
lhumerus -4.77627 29.6554 44.8917
lradius 87.6445
lwrist 25.375
lhand -43.3587 10.927
lfingers 7.12502
lthumb -16.2038 40.2698
rfemur -47.6325 -31.9105 22.8987
rtibia 77.5971
rfoot -14.6745 -7.76893
rtoes -0.802282
lfemur -66.9737 33.9461 -27.0158
ltibia 84.4188
lfoot 5.25877 -16.8306
ltoes -27.1383
